<svg width="903" height="904" viewBox="0 0 903 904" fill="none" xmlns="http://www.w3.org/2000/svg">
<path d="M0 27.4C0 20.5156 0 17.0734 0.838542 14.2695C2.76838 7.81658 7.81658 2.76838 14.2695 0.838542C17.0734 0 20.5156 0 27.4 0H774V904H27.4C20.5156 904 17.0734 904 14.2695 903.161C7.81658 901.232 2.76838 896.183 0.838542 889.73C0 886.927 0 883.484 0 876.6V27.4Z" fill="url(#paint0_linear_8_383)"/>
<g clip-path="url(#clip0_8_383)">
<path d="M360.613 368.016C360.613 368.016 400.242 326.78 400.947 329.588C402.315 335.039 405.043 344.413 405.043 344.413L448.793 328.239C448.793 328.239 433.583 254.436 425.71 245.792" stroke="#231F20" stroke-width="2" stroke-miterlimit="10" stroke-linecap="round" stroke-linejoin="round"/>
<path d="M571.676 397.915C572.448 389.371 544.135 394.251 544.135 394.251C544.135 394.251 570.534 410.576 571.676 397.915Z" fill="white" stroke="#231F20" stroke-width="3" stroke-miterlimit="10" stroke-linecap="round" stroke-linejoin="round"/>
<path d="M448.794 328.238L456.466 363.597C456.466 363.597 550.463 392.834 559.277 400.699C568.091 408.555 584.258 419.338 579.893 425.056C577.081 428.737 546.375 405.73 546.375 405.73C546.375 405.73 578.264 427.421 573.757 433.709C569.526 439.629 543.538 415.162 543.538 415.162C543.538 415.162 569.107 437.223 564.943 442.362C560.956 447.293 539.761 423.648 539.761 423.648C539.761 423.648 549.515 435.596 547.626 438.74C545.737 441.885 523.703 419.564 518.037 416.73C512.371 413.896 416.602 387.493 416.602 387.493L405.035 344.421L448.794 328.238Z" fill="#F5F5F5" stroke="#231F20" stroke-width="2" stroke-miterlimit="10" stroke-linecap="round" stroke-linejoin="round"/>
<path d="M395.281 305.734L400.939 329.588" stroke="#231F20" stroke-width="3" stroke-miterlimit="10" stroke-linecap="round" stroke-linejoin="round"/>
<path d="M380.032 483.966C383.594 485.218 386.188 488.319 386.744 492.053L401.283 589.813C401.839 593.552 400.239 597.285 397.148 599.461L324.622 650.514C321.033 653.04 316.216 652.931 312.745 650.245L268.829 616.254C263.769 612.338 263.638 604.744 268.558 600.655L299.259 575.144C302.922 572.1 303.962 566.936 301.801 562.692C290.078 539.673 255.066 467.03 257.165 424.403C295.961 453.21 360.461 477.088 380.032 483.966Z" fill="#1D1D1D" stroke="black" stroke-width="2" stroke-miterlimit="10" stroke-linecap="round" stroke-linejoin="round"/>
<path d="M335.893 475.943L357.055 583.108L288.668 630.783" stroke="#F5F5F5" stroke-miterlimit="10"/>
<path d="M240.543 617.978C248.482 610.539 260.648 609.964 269.252 616.622L306.716 645.613C318.388 654.645 316.326 672.836 302.929 679.027C296.934 681.798 289.948 681.375 284.331 677.902L244.041 652.989C231.633 645.316 229.898 627.954 240.543 617.978Z" fill="#FEBE16" stroke="#231F20" stroke-width="2" stroke-miterlimit="10" stroke-linecap="round" stroke-linejoin="round"/>
<path d="M231.629 645.32C227.958 643.05 223.244 643.392 219.939 646.168L205.361 658.414C200.48 662.513 200.629 670.072 205.668 673.976L259.059 715.343C265.751 720.528 275.456 715.572 275.178 707.111L274.757 694.252C274.669 691.558 275.878 688.985 278.009 687.335C282.644 683.745 282.269 676.631 277.283 673.548L231.629 645.32Z" fill="#F5F5F5" stroke="#231F20" stroke-width="2" stroke-miterlimit="10" stroke-linecap="round" stroke-linejoin="round"/>
<path d="M257.164 424.419C304.466 461.136 406.861 493.832 443.892 504.884C452.28 507.388 458.652 514.303 460.303 522.9L482.768 639.888C485.256 652.844 498.109 661.056 510.912 657.869L545.558 649.244C556.263 646.579 563.568 636.688 562.967 625.672L555.583 490.311C555.326 485.598 553.647 481.045 550.159 477.865C519.932 450.302 396.614 376.593 336.641 359.372C329.442 357.304 321.877 359.771 316.578 365.064L257.164 424.419Z" fill="#1D1D1D" stroke="black" stroke-width="2" stroke-miterlimit="10" stroke-linecap="round" stroke-linejoin="round"/>
<path d="M118.275 721.374C118.275 721.374 129.255 734.631 134.484 734.58C264.92 733.373 550.799 731.696 681.411 729.759C685.734 729.692 693.683 717.601 693.683 717.601" stroke="#231F20" stroke-width="8" stroke-miterlimit="10" stroke-linecap="round" stroke-linejoin="round"/>
<path d="M290.573 776.515C301.115 776.515 309.661 767.979 309.661 757.448C309.661 746.918 301.115 738.382 290.573 738.382C280.03 738.382 271.484 746.918 271.484 757.448C271.484 767.979 280.03 776.515 290.573 776.515Z" fill="#FEBE16" stroke="#231F20" stroke-width="2" stroke-miterlimit="10" stroke-linecap="round" stroke-linejoin="round"/>
<path d="M588.883 773.838C599.425 773.838 607.971 765.302 607.971 754.771C607.971 744.241 599.425 735.704 588.883 735.704C578.341 735.704 569.795 744.241 569.795 754.771C569.795 765.302 578.341 773.838 588.883 773.838Z" fill="#FEBE16" stroke="#231F20" stroke-width="2" stroke-miterlimit="10" stroke-linecap="round" stroke-linejoin="round"/>
<path d="M482.901 679.731C480.667 672.168 485.188 664.267 492.842 662.362L554.787 646.944C565.604 644.252 575.929 652.822 575.274 663.95C574.819 671.678 569.059 678.055 561.416 679.291L498.4 689.483C491.516 690.596 484.877 686.419 482.901 679.731Z" fill="#FEBE16" stroke="#231F20" stroke-width="2" stroke-miterlimit="10" stroke-linecap="round" stroke-linejoin="round"/>
<path d="M555.716 680.219C560.58 679.433 564.993 683.189 564.993 688.117V688.827C564.993 691.385 566.216 693.788 568.283 695.294L590.315 711.34C596.554 715.884 593.376 725.756 585.657 725.807L504.836 726.334C500.947 726.359 497.604 723.584 496.912 719.757L493.087 698.603C492.29 694.198 495.263 689.997 499.682 689.282L555.716 680.219Z" fill="#F5F5F5" stroke="#231F20" stroke-width="2" stroke-miterlimit="10" stroke-linecap="round" stroke-linejoin="round"/>
<path d="M441.163 235.94C448.771 235.94 454.938 228.83 454.938 220.059C454.938 211.288 448.771 204.178 441.163 204.178C433.556 204.178 427.389 211.288 427.389 220.059C427.389 228.83 433.556 235.94 441.163 235.94Z" fill="white" stroke="#231F20" stroke-width="2" stroke-miterlimit="10" stroke-linecap="round" stroke-linejoin="round"/>
<path d="M312.742 299.663C312.742 299.663 375.732 261.085 438.721 267.692" stroke="#E5E5E5" stroke-width="2" stroke-miterlimit="10" stroke-linecap="round" stroke-linejoin="round"/>
<path d="M319.365 306.279C319.365 306.279 370.234 266.686 439.98 275.977" stroke="#E5E5E5" stroke-width="2" stroke-miterlimit="10" stroke-linecap="round" stroke-linejoin="round"/>
<path d="M343.447 338.233C343.447 338.233 375.731 341.377 396.33 336.137" stroke="#F1EDFF" stroke-width="2" stroke-miterlimit="10" stroke-linecap="round" stroke-linejoin="round"/>
<path d="M335.893 345.779C335.893 345.779 368.579 349.502 391.923 342.845" stroke="#F5F5F5" stroke-width="2" stroke-miterlimit="10" stroke-linecap="round" stroke-linejoin="round"/>
<path d="M303.14 252.135L271.774 230.763C270.861 230.141 269.616 230.377 268.993 231.289L240.267 273.355C239.644 274.267 239.879 275.511 240.792 276.133L272.158 297.504C273.071 298.126 274.316 297.891 274.939 296.979L303.665 254.913C304.288 254.001 304.053 252.757 303.14 252.135Z" fill="#C0C1C0" stroke="#231F20" stroke-width="2" stroke-miterlimit="10" stroke-linecap="round" stroke-linejoin="round"/>
<path d="M318.051 262.298L304.793 253.264L273.811 298.633L287.069 307.667L318.051 262.298Z" fill="#231F20" stroke="#231F20" stroke-width="2" stroke-miterlimit="10" stroke-linecap="round" stroke-linejoin="round"/>
<path d="M286.008 251.843L264.816 237.404L239.142 275.002L260.333 289.441L286.008 251.843Z" fill="#F5F5F5" stroke="#231F20" stroke-width="2" stroke-miterlimit="10" stroke-linecap="round" stroke-linejoin="round"/>
<path d="M425.711 245.783C429.723 244.651 427.389 241.482 432.946 232.267C438.612 222.868 461.402 215.338 461.377 208.48C461.335 193.463 427.087 169.91 393.175 190.872C388.348 193.857 373.642 193.094 372.215 199.542C369.932 209.838 378.334 206.191 381.029 213.452C385.092 224.402 396.843 229.643 403.248 232.577C410.643 235.965 412.792 249.422 425.711 245.783Z" fill="#231F20" stroke="#231F20" stroke-width="3" stroke-miterlimit="10" stroke-linecap="round" stroke-linejoin="round"/>
<path d="M177.12 129.026H124.275C120.962 129.026 118.275 131.713 118.275 135.026V178.994C118.275 182.308 120.962 184.994 124.275 184.994H177.12C180.434 184.994 183.12 182.308 183.12 178.994V135.026C183.12 131.713 180.434 129.026 177.12 129.026Z" fill="#77AF44" stroke="#231F20" stroke-width="2" stroke-miterlimit="10" stroke-linecap="round" stroke-linejoin="round"/>
<path d="M150.693 139.407H118.275V158.742H150.693V139.407Z" fill="white" stroke="#231F20" stroke-width="2" stroke-miterlimit="10" stroke-linecap="round" stroke-linejoin="round"/>
<path d="M119.006 168.334H139.991" stroke="#231F20" stroke-width="2" stroke-miterlimit="10" stroke-linecap="round" stroke-linejoin="round"/>
<path d="M119.006 174.932H130.447" stroke="#231F20" stroke-width="2" stroke-miterlimit="10" stroke-linecap="round" stroke-linejoin="round"/>
<path d="M175.712 129.518H167.514C164.752 129.518 162.514 131.757 162.514 134.518V177.814C162.514 180.576 164.752 182.814 167.514 182.814H175.712C178.474 182.814 180.712 180.576 180.712 177.814V134.518C180.712 131.757 178.474 129.518 175.712 129.518Z" fill="#231F20" stroke="#231F20" stroke-width="2" stroke-miterlimit="10" stroke-linecap="round" stroke-linejoin="round"/>
<path d="M630.724 303.309L573.829 266.166C571.054 264.355 567.334 265.134 565.52 267.907L534.285 315.644C532.471 318.417 533.249 322.134 536.024 323.945L592.919 361.088C595.694 362.9 599.414 362.12 601.229 359.347L632.463 311.61C634.277 308.837 633.499 305.121 630.724 303.309Z" fill="#FEBE16" stroke="#231F20" stroke-width="2" stroke-miterlimit="10" stroke-linecap="round" stroke-linejoin="round"/>
<path d="M595.274 295.45L561.799 273.596L548.738 293.558L582.213 315.411L595.274 295.45Z" fill="#77AF44" stroke="#231F20" stroke-width="2" stroke-miterlimit="10" stroke-linecap="round" stroke-linejoin="round"/>
<path d="M542.262 303.445L564.691 318.076" stroke="#231F20" stroke-width="2" stroke-miterlimit="10" stroke-linecap="round" stroke-linejoin="round"/>
<path d="M537.805 310.262L550.371 318.462" stroke="#231F20" stroke-width="2" stroke-miterlimit="10" stroke-linecap="round" stroke-linejoin="round"/>
<path d="M616.498 293.987L578.693 351.766L597.975 364.353L635.779 306.574L616.498 293.987Z" fill="#231F20" stroke="#231F20" stroke-width="2" stroke-miterlimit="10" stroke-linecap="round" stroke-linejoin="round"/>
<path d="M343.156 330.032L245.899 232.885C243.555 230.543 239.754 230.543 237.409 232.885L145.946 324.246C143.601 326.588 143.601 330.384 145.946 332.726L243.202 429.874C245.547 432.216 249.348 432.216 251.692 429.874L343.156 338.513C345.5 336.171 345.5 332.374 343.156 330.032Z" fill="#77AF44" stroke="#231F20" stroke-width="2" stroke-miterlimit="10" stroke-linecap="round" stroke-linejoin="round"/>
<path d="M343.157 330.042L319.417 306.329C317.072 303.987 313.271 303.987 310.927 306.329L219.463 397.69C217.119 400.032 217.119 403.829 219.463 406.171L243.203 429.884C245.548 432.225 249.349 432.225 251.693 429.884L343.157 338.523C345.501 336.181 345.501 332.384 343.157 330.042Z" fill="#F1EDFF" stroke="#231F20" stroke-width="2" stroke-miterlimit="10" stroke-linecap="round" stroke-linejoin="round"/>
<path d="M269.796 308.915C267.916 309.198 266.014 308.573 264.668 307.232L201.828 244.62C198.352 241.157 200.277 235.212 205.123 234.444L238.633 229.132C240.529 228.831 242.455 229.456 243.813 230.812L306.757 293.678C310.241 297.159 308.28 303.124 303.409 303.857L269.796 308.915Z" fill="#DADADA" stroke="#231F20" stroke-width="2" stroke-miterlimit="10" stroke-linecap="round" stroke-linejoin="round"/>
<path d="M193.201 191.283C193.201 191.283 210.82 202.912 214.908 210.148" stroke="#231F20" stroke-width="3" stroke-miterlimit="10" stroke-linecap="round" stroke-linejoin="round"/>
<path d="M259.926 214.257C259.926 214.257 257.03 224.671 256.459 228.653" stroke="#231F20" stroke-width="3" stroke-miterlimit="10" stroke-linecap="round" stroke-linejoin="round"/>
<path d="M335.154 152.923C335.154 152.923 307.974 177.565 303.047 186.881" stroke="#231F20" stroke-width="3" stroke-miterlimit="10" stroke-linecap="round" stroke-linejoin="round"/>
<path d="M376.756 231.758L347.297 185.883C345.506 183.094 341.793 182.283 339.003 184.071L302.744 207.303C299.954 209.09 299.144 212.8 300.934 215.588L330.393 261.463C332.184 264.251 335.897 265.063 338.687 263.275L374.946 240.043C377.736 238.255 378.546 234.546 376.756 231.758Z" fill="#FEBE16" stroke="#231F20" stroke-width="2" stroke-miterlimit="10" stroke-linecap="round" stroke-linejoin="round"/>
<path d="M364.941 231.541L343.623 198.343L325.741 209.8L347.059 242.998L364.941 231.541Z" fill="#F5F5F5" stroke="#231F20" stroke-width="2" stroke-miterlimit="10" stroke-linecap="round" stroke-linejoin="round"/>
<path d="M318.039 214.735L327.197 228.989" stroke="#231F20" stroke-width="2" stroke-miterlimit="10" stroke-linecap="round" stroke-linejoin="round"/>
<path d="M312.742 218.131L320.028 229.467" stroke="#231F20" stroke-width="2" stroke-miterlimit="10" stroke-linecap="round" stroke-linejoin="round"/>
<path d="M404.699 433.466L510.322 497.534L527.698 623.472" stroke="#F5F5F5" stroke-miterlimit="10"/>
<rect x="538.24" y="131.737" width="105.805" height="72.7753" rx="15" fill="#F5F5F5"/>
</g>
<g filter="url(#filter0_d_8_383)">
<rect x="644" y="509.879" width="205.304" height="70.4674" rx="15" fill="#F1EDFF"/>
</g>
<rect x="644" y="509.879" width="74.5328" height="70.4674" rx="15" fill="#FEBE16"/>
<path d="M738.769 534.297V542.637H742.957V541.533H740.137V534.297H738.769ZM746.885 537.069C747.905 537.069 748.709 537.717 748.733 538.737H745.073C745.217 537.693 745.961 537.069 746.885 537.069ZM749.981 540.669H748.505C748.253 541.185 747.785 541.593 746.945 541.593C745.937 541.593 745.157 540.933 745.061 539.841H750.113C750.149 539.613 750.161 539.397 750.161 539.169C750.161 537.225 748.829 535.917 746.945 535.917C744.989 535.917 743.645 537.249 743.645 539.325C743.645 541.401 745.049 542.745 746.945 542.745C748.565 542.745 749.609 541.821 749.981 540.669ZM751.051 539.301C751.051 541.341 752.431 542.745 754.147 542.745C755.251 542.745 756.043 542.217 756.463 541.653V542.637H757.843V536.025H756.463V536.985C756.055 536.445 755.287 535.917 754.171 535.917C752.431 535.917 751.051 537.261 751.051 539.301ZM756.463 539.325C756.463 540.753 755.491 541.557 754.459 541.557C753.439 541.557 752.455 540.729 752.455 539.301C752.455 537.873 753.439 537.105 754.459 537.105C755.491 537.105 756.463 537.909 756.463 539.325ZM761.008 539.157C761.008 537.753 761.632 537.333 762.64 537.333H762.988V535.917C762.052 535.917 761.392 536.325 761.008 536.985V536.025H759.64V542.637H761.008V539.157ZM768.938 542.637H770.294V538.737C770.294 536.889 769.13 535.917 767.582 535.917C766.79 535.917 766.058 536.241 765.614 536.781V536.025H764.246V542.637H765.614V538.941C765.614 537.729 766.274 537.105 767.282 537.105C768.278 537.105 768.938 537.729 768.938 538.941V542.637ZM772.039 542.637H773.407V536.025H772.039V542.637ZM772.735 535.149C773.215 535.149 773.599 534.765 773.599 534.273C773.599 533.781 773.215 533.397 772.735 533.397C772.243 533.397 771.859 533.781 771.859 534.273C771.859 534.765 772.243 535.149 772.735 535.149ZM779.895 542.637H781.251V538.737C781.251 536.889 780.087 535.917 778.539 535.917C777.747 535.917 777.015 536.241 776.571 536.781V536.025H775.203V542.637H776.571V538.941C776.571 537.729 777.231 537.105 778.239 537.105C779.235 537.105 779.895 537.729 779.895 538.941V542.637ZM782.54 539.301C782.54 541.341 783.92 542.745 785.66 542.745C786.74 542.745 787.532 542.205 787.952 541.641V542.745C787.952 544.065 787.16 544.713 786.104 544.713C785.156 544.713 784.424 544.245 784.22 543.561H782.864C783.032 545.025 784.34 545.901 786.104 545.901C788.168 545.901 789.332 544.545 789.332 542.745V536.025H787.952V536.985C787.544 536.421 786.74 535.917 785.66 535.917C783.92 535.917 782.54 537.261 782.54 539.301ZM787.952 539.325C787.952 540.753 786.98 541.557 785.948 541.557C784.928 541.557 783.944 540.729 783.944 539.301C783.944 537.873 784.928 537.105 785.948 537.105C786.98 537.105 787.952 537.909 787.952 539.325ZM803.618 542.637H804.974V538.737C804.974 536.889 803.798 535.917 802.25 535.917C801.29 535.917 800.354 536.421 799.946 537.225C799.49 536.361 798.614 535.917 797.57 535.917C796.778 535.917 796.058 536.241 795.614 536.781V536.025H794.246V542.637H795.614V538.941C795.614 537.729 796.274 537.105 797.282 537.105C798.278 537.105 798.938 537.729 798.938 538.941V542.637H800.294V538.941C800.294 537.729 800.954 537.105 801.962 537.105C802.958 537.105 803.618 537.729 803.618 538.941V542.637ZM806.258 539.301C806.258 541.341 807.638 542.745 809.354 542.745C810.458 542.745 811.25 542.217 811.67 541.653V542.637H813.05V536.025H811.67V536.985C811.262 536.445 810.494 535.917 809.378 535.917C807.638 535.917 806.258 537.261 806.258 539.301ZM811.67 539.325C811.67 540.753 810.698 541.557 809.666 541.557C808.646 541.557 807.662 540.729 807.662 539.301C807.662 537.873 808.646 537.105 809.666 537.105C810.698 537.105 811.67 537.909 811.67 539.325ZM814.391 539.301C814.391 541.341 815.771 542.745 817.511 542.745C818.591 542.745 819.383 542.241 819.803 541.641V542.637H821.183V533.757H819.803V536.949C819.299 536.325 818.387 535.917 817.523 535.917C815.771 535.917 814.391 537.261 814.391 539.301ZM819.803 539.325C819.803 540.753 818.831 541.557 817.799 541.557C816.779 541.557 815.795 540.729 815.795 539.301C815.795 537.873 816.779 537.105 817.799 537.105C818.831 537.105 819.803 537.909 819.803 539.325ZM825.764 537.069C826.784 537.069 827.588 537.717 827.612 538.737H823.952C824.096 537.693 824.84 537.069 825.764 537.069ZM828.86 540.669H827.384C827.132 541.185 826.664 541.593 825.824 541.593C824.816 541.593 824.036 540.933 823.94 539.841H828.992C829.028 539.613 829.04 539.397 829.04 539.169C829.04 537.225 827.708 535.917 825.824 535.917C823.868 535.917 822.524 537.249 822.524 539.325C822.524 541.401 823.928 542.745 825.824 542.745C827.444 542.745 828.488 541.821 828.86 540.669ZM743.701 556.789C743.629 554.401 739.897 555.145 739.897 553.813C739.897 553.369 740.281 553.069 741.013 553.069C741.757 553.069 742.201 553.465 742.249 554.041H743.617C743.545 552.721 742.561 551.917 741.061 551.917C739.501 551.917 738.517 552.769 738.517 553.825C738.517 556.249 742.357 555.505 742.357 556.801C742.357 557.257 741.937 557.593 741.145 557.593C740.389 557.593 739.873 557.149 739.825 556.609H738.409C738.469 557.809 739.585 558.745 741.169 558.745C742.729 558.745 743.701 557.905 743.701 556.789ZM744.723 555.301C744.723 557.341 746.103 558.745 747.819 558.745C748.923 558.745 749.715 558.217 750.135 557.653V558.637H751.515V552.025H750.135V552.985C749.727 552.445 748.959 551.917 747.843 551.917C746.103 551.917 744.723 553.261 744.723 555.301ZM750.135 555.325C750.135 556.753 749.163 557.557 748.131 557.557C747.111 557.557 746.127 556.729 746.127 555.301C746.127 553.873 747.111 553.105 748.131 553.105C749.163 553.105 750.135 553.909 750.135 555.325ZM753.48 558.637H754.86V553.141H756.084V552.025H754.86V551.557C754.86 550.801 755.148 550.513 755.988 550.513V549.373C754.26 549.373 753.48 550.033 753.48 551.557V552.025H752.7V553.141H753.48V558.637ZM760.08 553.069C761.1 553.069 761.904 553.717 761.928 554.737H758.268C758.412 553.693 759.156 553.069 760.08 553.069ZM763.176 556.669H761.7C761.448 557.185 760.98 557.593 760.14 557.593C759.132 557.593 758.352 556.933 758.256 555.841H763.308C763.344 555.613 763.356 555.397 763.356 555.169C763.356 553.225 762.024 551.917 760.14 551.917C758.184 551.917 756.84 553.249 756.84 555.325C756.84 557.401 758.244 558.745 760.14 558.745C761.76 558.745 762.804 557.821 763.176 556.669ZM773.124 552.157C773.208 551.017 772.428 550.105 770.976 550.105C769.548 550.105 768.66 550.933 768.66 552.025C768.66 552.613 768.828 553.057 769.296 553.621C767.976 554.161 767.34 555.109 767.34 556.237C767.34 557.797 768.54 558.793 770.34 558.793C771.504 558.793 772.428 558.409 773.232 557.605L774.264 558.637H776.052L774.024 556.621C774.12 556.465 774.228 556.297 774.324 556.129L775.404 554.281H773.928L773.076 555.685L770.868 553.489C770.28 552.853 770.028 552.481 770.028 552.025C770.028 551.581 770.376 551.221 770.916 551.221C771.432 551.221 771.78 551.545 771.756 552.157H773.124ZM770.34 557.629C769.356 557.629 768.708 556.993 768.708 556.189C768.708 555.445 769.152 554.869 770.124 554.485L772.332 556.705C771.756 557.317 771.12 557.629 770.34 557.629ZM782.85 553.069C783.87 553.069 784.674 553.717 784.698 554.737H781.038C781.182 553.693 781.926 553.069 782.85 553.069ZM785.946 556.669H784.47C784.218 557.185 783.75 557.593 782.91 557.593C781.902 557.593 781.122 556.933 781.026 555.841H786.078C786.114 555.613 786.126 555.397 786.126 555.169C786.126 553.225 784.794 551.917 782.91 551.917C780.954 551.917 779.61 553.249 779.61 555.325C779.61 557.401 781.014 558.745 782.91 558.745C784.53 558.745 785.574 557.821 785.946 556.669ZM792.164 558.637H793.52V554.737C793.52 552.889 792.356 551.917 790.808 551.917C790.016 551.917 789.284 552.241 788.84 552.781V552.025H787.472V558.637H788.84V554.941C788.84 553.729 789.5 553.105 790.508 553.105C791.504 553.105 792.164 553.729 792.164 554.941V558.637ZM795.961 551.149C796.441 551.149 796.825 550.765 796.825 550.273C796.825 549.781 796.441 549.397 795.961 549.397C795.469 549.397 795.085 549.781 795.085 550.273C795.085 550.765 795.469 551.149 795.961 551.149ZM795.265 552.025V559.933C795.265 560.425 795.073 560.629 794.497 560.629H794.029V561.781H794.737C795.913 561.781 796.633 561.277 796.633 559.933V552.025H795.265ZM804.729 555.325C804.729 553.249 803.241 551.917 801.357 551.917C799.473 551.917 797.985 553.249 797.985 555.325C797.985 557.401 799.413 558.745 801.297 558.745C803.193 558.745 804.729 557.401 804.729 555.325ZM799.377 555.325C799.377 553.825 800.301 553.105 801.333 553.105C802.353 553.105 803.325 553.825 803.325 555.325C803.325 556.825 802.317 557.557 801.297 557.557C800.265 557.557 799.377 556.825 799.377 555.325ZM808.686 557.065L806.826 552.025H805.302L807.906 558.529L806.562 561.745H807.978L812.034 552.025H810.618L808.686 557.065ZM812.61 555.301C812.61 557.341 813.99 558.745 815.706 558.745C816.81 558.745 817.602 558.217 818.022 557.653V558.637H819.402V552.025H818.022V552.985C817.614 552.445 816.846 551.917 815.73 551.917C813.99 551.917 812.61 553.261 812.61 555.301ZM818.022 555.325C818.022 556.753 817.05 557.557 816.018 557.557C814.998 557.557 814.014 556.729 814.014 555.301C814.014 553.873 814.998 553.105 816.018 553.105C817.05 553.105 818.022 553.909 818.022 555.325ZM822.567 553.009V549.757H821.199V558.637H822.567V557.677C822.999 558.253 823.779 558.745 824.871 558.745C826.611 558.745 827.979 557.341 827.979 555.301C827.979 553.261 826.623 551.917 824.871 551.917C823.827 551.917 822.999 552.409 822.567 553.009ZM826.587 555.301C826.587 556.729 825.603 557.557 824.571 557.557C823.551 557.557 822.567 556.753 822.567 555.325C822.567 553.909 823.551 553.105 824.571 553.105C825.603 553.105 826.587 553.873 826.587 555.301ZM829.332 558.637H830.7V549.757H829.332V558.637ZM835.28 553.069C836.3 553.069 837.104 553.717 837.128 554.737H833.468C833.612 553.693 834.356 553.069 835.28 553.069ZM838.376 556.669H836.9C836.648 557.185 836.18 557.593 835.34 557.593C834.332 557.593 833.552 556.933 833.456 555.841H838.508C838.544 555.613 838.556 555.397 838.556 555.169C838.556 553.225 837.224 551.917 835.34 551.917C833.384 551.917 832.04 553.249 832.04 555.325C832.04 557.401 833.444 558.745 835.34 558.745C836.96 558.745 838.004 557.821 838.376 556.669Z" fill="#686868"/>
<path d="M692.634 482.732L681.293 508.414L701.99 517.522L713.331 491.841L692.634 482.732Z" fill="#77AF44" stroke="black" stroke-width="2" stroke-miterlimit="10" stroke-linecap="round" stroke-linejoin="round"/>
<path d="M681.289 508.413L677.953 515.968L698.65 525.076L701.986 517.522L681.289 508.413Z" fill="#F5F5F5" stroke="black" stroke-width="2" stroke-miterlimit="10" stroke-linecap="round" stroke-linejoin="round"/>
<path d="M677.957 515.966L669.811 534.416L672.171 557.062L690.51 543.525L698.656 525.076L677.957 515.966Z" fill="#F5F5F5" stroke="black" stroke-width="2" stroke-miterlimit="10" stroke-linecap="round" stroke-linejoin="round"/>
<path d="M685.401 532.333C686.526 531.551 686.805 530.007 686.024 528.884C685.243 527.761 683.698 527.484 682.574 528.266C681.449 529.048 681.17 530.592 681.951 531.716C682.732 532.839 684.277 533.115 685.401 532.333Z" fill="white" stroke="black" stroke-width="2" stroke-miterlimit="10" stroke-linecap="round" stroke-linejoin="round"/>
<g filter="url(#filter1_d_8_383)">
<path d="M671.104 547.146L680.59 551.211" stroke="black" stroke-width="2"/>
</g>
<defs>
<filter id="filter0_d_8_383" x="591" y="484.879" width="311.305" height="176.467" filterUnits="userSpaceOnUse" color-interpolation-filters="sRGB">
<feFlood flood-opacity="0" result="BackgroundImageFix"/>
<feColorMatrix in="SourceAlpha" type="matrix" values="0 0 0 0 0 0 0 0 0 0 0 0 0 0 0 0 0 0 127 0" result="hardAlpha"/>
<feOffset dy="28"/>
<feGaussianBlur stdDeviation="26.5"/>
<feColorMatrix type="matrix" values="0 0 0 0 0 0 0 0 0 0 0 0 0 0 0 0 0 0 0.13 0"/>
<feBlend mode="normal" in2="BackgroundImageFix" result="effect1_dropShadow_8_383"/>
<feBlend mode="normal" in="SourceGraphic" in2="effect1_dropShadow_8_383" result="shape"/>
</filter>
<filter id="filter1_d_8_383" x="666.709" y="546.226" width="18.2754" height="13.9037" filterUnits="userSpaceOnUse" color-interpolation-filters="sRGB">
<feFlood flood-opacity="0" result="BackgroundImageFix"/>
<feColorMatrix in="SourceAlpha" type="matrix" values="0 0 0 0 0 0 0 0 0 0 0 0 0 0 0 0 0 0 127 0" result="hardAlpha"/>
<feOffset dy="4"/>
<feGaussianBlur stdDeviation="2"/>
<feColorMatrix type="matrix" values="0 0 0 0 0 0 0 0 0 0 0 0 0 0 0 0 0 0 0.25 0"/>
<feBlend mode="normal" in2="BackgroundImageFix" result="effect1_dropShadow_8_383"/>
<feBlend mode="normal" in="SourceGraphic" in2="effect1_dropShadow_8_383" result="shape"/>
</filter>
<linearGradient id="paint0_linear_8_383" x1="-239.5" y1="206.41" x2="1098.89" y2="767.774" gradientUnits="userSpaceOnUse">
<stop stop-color="#FFBB00"/>
<stop offset="1" stop-color="#E5AA08"/>
</linearGradient>
<clipPath id="clip0_8_383">
<rect x="117" y="105" width="578" height="675" rx="24" fill="white"/>
</clipPath>
</defs>
</svg>
